<svg id="Layer_1" data-name="Layer 1" xmlns="http://www.w3.org/2000/svg" viewBox="0 0 15.59 14.64"><path d="M13.17,9.16a8.87,8.87,0,0,0-6.81,2.27c-1.5,1.6-1.91,2.24-1.91,4.34a.94.94,0,0,0,1,1h0c.6,0,3.62-.51,3.62-1,0-1.6-2-3.09-.82-4.29a5.76,5.76,0,0,1,4.8-1.7c1.8.2,2.41,1.89,3.41,3.39,1.3,2,2.29,3.91,1,5.91-1.1,1.7-3,4.13-5,4.13-1.1,0-2-2.33-2-3.43v-4h0a2,2,0,0,1,4,0c0,1.1-1,.58-2.12.58-.6,0-.88,1.82-.88,2.42a.94.94,0,0,0,1,1c2.2,0,2.59-1.81,2.59-4s-.39-4-2.59-4a4,4,0,0,0-4,4h0v4a4,4,0,0,0,4,4c2.7,0,4.46-1.68,6-4,1.8-2.6,2.31-4.95.51-7.65C17.62,10.24,15.57,9.46,13.17,9.16Z" transform="translate(-4.45 -9.13)"/></svg>